<svg xmlns="http://www.w3.org/2000/svg" xmlns:xlink="http://www.w3.org/1999/xlink" width="500" zoomAndPan="magnify" viewBox="0 0 375 374.999991" height="500" preserveAspectRatio="xMidYMid meet" version="1.0"><defs><g/><clipPath id="9dd4603791"><path d="M 49.410156 70 L 325.410156 70 L 325.410156 305 L 49.410156 305 Z M 49.410156 70 " clip-rule="nonzero"/></clipPath><clipPath id="af9816b5a8"><path d="M 150 85 L 325.410156 85 L 325.410156 305 L 150 305 Z M 150 85 " clip-rule="nonzero"/></clipPath><clipPath id="e0b1248e90"><path d="M 49.410156 70 L 325.410156 70 L 325.410156 257 L 49.410156 257 Z M 49.410156 70 " clip-rule="nonzero"/></clipPath><clipPath id="d37237c49c"><path d="M 49.410156 161 L 325.410156 161 L 325.410156 257 L 49.410156 257 Z M 49.410156 161 " clip-rule="nonzero"/></clipPath></defs><g clip-path="url(#9dd4603791)"><path fill="#dfe8f4" d="M 172.460938 75.003906 L 64.417969 137.070312 C 63.28125 137.71875 62.195312 138.441406 61.15625 139.234375 C 60.117188 140.027344 59.132812 140.882812 58.207031 141.804688 C 57.28125 142.726562 56.417969 143.703125 55.617188 144.738281 C 54.820312 145.773438 54.09375 146.855469 53.4375 147.984375 C 52.78125 149.117188 52.203125 150.285156 51.699219 151.492188 C 51.199219 152.699219 50.777344 153.929688 50.4375 155.191406 C 50.097656 156.453125 49.839844 157.734375 49.667969 159.027344 C 49.496094 160.324219 49.410156 161.625 49.410156 162.929688 L 49.410156 274.992188 C 49.410156 275.972656 49.457031 276.949219 49.554688 277.921875 C 49.648438 278.898438 49.792969 279.863281 49.984375 280.824219 C 50.175781 281.785156 50.414062 282.730469 50.695312 283.667969 C 50.980469 284.605469 51.3125 285.527344 51.6875 286.429688 C 52.058594 287.335938 52.480469 288.21875 52.941406 289.082031 C 53.402344 289.945312 53.90625 290.78125 54.449219 291.597656 C 54.992188 292.410156 55.574219 293.195312 56.195312 293.953125 C 56.816406 294.707031 57.476562 295.433594 58.167969 296.125 C 58.859375 296.816406 59.585938 297.472656 60.339844 298.09375 C 61.097656 298.714844 61.882812 299.296875 62.699219 299.839844 C 63.511719 300.386719 64.351562 300.886719 65.214844 301.347656 C 66.078125 301.808594 66.960938 302.226562 67.867188 302.601562 C 68.773438 302.976562 69.691406 303.304688 70.628906 303.589844 C 71.566406 303.875 72.515625 304.113281 73.476562 304.304688 C 74.4375 304.496094 75.40625 304.636719 76.378906 304.734375 C 77.355469 304.828125 78.332031 304.878906 79.308594 304.878906 L 295.507812 304.878906 C 296.488281 304.878906 297.464844 304.828125 298.441406 304.734375 C 299.414062 304.636719 300.382812 304.492188 301.34375 304.304688 C 302.304688 304.113281 303.253906 303.875 304.1875 303.589844 C 305.125 303.304688 306.046875 302.976562 306.953125 302.601562 C 307.855469 302.226562 308.742188 301.808594 309.605469 301.347656 C 310.46875 300.886719 311.308594 300.386719 312.121094 299.839844 C 312.933594 299.296875 313.722656 298.714844 314.476562 298.09375 C 315.234375 297.472656 315.960938 296.816406 316.652344 296.125 C 317.34375 295.433594 318 294.707031 318.621094 293.953125 C 319.242188 293.195312 319.828125 292.410156 320.371094 291.597656 C 320.914062 290.78125 321.417969 289.945312 321.878906 289.082031 C 322.339844 288.21875 322.757812 287.335938 323.132812 286.429688 C 323.507812 285.527344 323.839844 284.605469 324.121094 283.667969 C 324.40625 282.730469 324.644531 281.785156 324.835938 280.824219 C 325.027344 279.863281 325.167969 278.898438 325.265625 277.921875 C 325.363281 276.949219 325.410156 275.972656 325.410156 274.992188 L 325.410156 162.929688 C 325.410156 161.625 325.324219 160.328125 325.15625 159.03125 C 324.984375 157.738281 324.730469 156.460938 324.394531 155.199219 C 324.054688 153.9375 323.636719 152.707031 323.136719 151.5 C 322.636719 150.292969 322.058594 149.125 321.40625 147.996094 C 320.753906 146.867188 320.027344 145.785156 319.234375 144.75 C 318.4375 143.714844 317.578125 142.734375 316.652344 141.8125 C 315.730469 140.890625 314.75 140.03125 313.710938 139.238281 C 312.675781 138.445312 311.589844 137.722656 310.460938 137.070312 L 202.359375 75.003906 C 201.230469 74.351562 200.058594 73.773438 198.851562 73.273438 C 197.644531 72.773438 196.410156 72.351562 195.148438 72.011719 C 193.886719 71.675781 192.609375 71.421875 191.3125 71.25 C 190.019531 71.078125 188.714844 70.992188 187.410156 70.992188 C 186.101562 70.992188 184.800781 71.078125 183.507812 71.25 C 182.210938 71.421875 180.933594 71.675781 179.667969 72.011719 C 178.40625 72.351562 177.171875 72.773438 175.964844 73.273438 C 174.757812 73.773438 173.589844 74.351562 172.460938 75.003906 Z M 172.460938 75.003906 " fill-opacity="1" fill-rule="nonzero"/></g><g clip-path="url(#af9816b5a8)"><path fill="#ccd8e5" d="M 325.410156 274.992188 L 325.410156 162.929688 C 325.410156 161.625 325.324219 160.328125 325.15625 159.03125 C 324.984375 157.738281 324.730469 156.460938 324.394531 155.199219 C 324.054688 153.9375 323.636719 152.707031 323.136719 151.5 C 322.636719 150.292969 322.058594 149.125 321.40625 147.996094 C 320.753906 146.867188 320.027344 145.785156 319.234375 144.75 C 318.4375 143.714844 317.578125 142.734375 316.652344 141.8125 C 315.730469 140.890625 314.75 140.03125 313.710938 139.238281 C 312.675781 138.445312 311.589844 137.722656 310.460938 137.070312 L 221.507812 85.753906 L 150.550781 239.996094 L 240.136719 290.394531 C 244.347656 292.757812 248.691406 294.84375 253.167969 296.648438 C 257.648438 298.457031 262.222656 299.96875 266.894531 301.191406 C 271.5625 302.414062 276.292969 303.332031 281.082031 303.949219 C 285.871094 304.566406 290.679688 304.875 295.507812 304.878906 C 296.488281 304.878906 297.46875 304.832031 298.441406 304.738281 C 299.417969 304.644531 300.386719 304.503906 301.347656 304.3125 C 302.308594 304.125 303.257812 303.886719 304.195312 303.605469 C 305.132812 303.320312 306.054688 302.992188 306.960938 302.617188 C 307.867188 302.246094 308.75 301.828125 309.617188 301.367188 C 310.480469 300.90625 311.320312 300.402344 312.136719 299.859375 C 312.949219 299.316406 313.734375 298.734375 314.492188 298.113281 C 315.25 297.492188 315.976562 296.835938 316.667969 296.140625 C 317.363281 295.449219 318.019531 294.722656 318.640625 293.96875 C 319.261719 293.210938 319.84375 292.425781 320.386719 291.609375 C 320.933594 290.796875 321.433594 289.957031 321.894531 289.09375 C 322.359375 288.226562 322.773438 287.34375 323.148438 286.4375 C 323.523438 285.535156 323.851562 284.613281 324.136719 283.675781 C 324.417969 282.738281 324.65625 281.789062 324.84375 280.828125 C 325.035156 279.867188 325.175781 278.898438 325.269531 277.925781 C 325.367188 276.949219 325.410156 275.972656 325.410156 274.992188 Z M 325.410156 274.992188 " fill-opacity="1" fill-rule="nonzero"/></g><g clip-path="url(#e0b1248e90)"><path fill="#0795ff" d="M 310.402344 137.070312 L 202.359375 75.003906 C 201.230469 74.351562 200.058594 73.773438 198.851562 73.273438 C 197.644531 72.773438 196.410156 72.351562 195.148438 72.011719 C 193.886719 71.675781 192.609375 71.421875 191.3125 71.25 C 190.019531 71.078125 188.714844 70.992188 187.410156 70.992188 C 186.101562 70.992188 184.800781 71.078125 183.507812 71.25 C 182.210938 71.421875 180.933594 71.675781 179.667969 72.011719 C 178.40625 72.351562 177.171875 72.773438 175.964844 73.273438 C 174.757812 73.773438 173.589844 74.351562 172.460938 75.003906 L 64.417969 137.070312 C 63.28125 137.71875 62.195312 138.441406 61.15625 139.234375 C 60.117188 140.027344 59.132812 140.882812 58.207031 141.804688 C 57.28125 142.726562 56.417969 143.703125 55.617188 144.738281 C 54.820312 145.773438 54.09375 146.855469 53.4375 147.984375 C 52.78125 149.117188 52.203125 150.285156 51.699219 151.492188 C 51.199219 152.699219 50.777344 153.929688 50.4375 155.191406 C 50.097656 156.453125 49.839844 157.734375 49.667969 159.027344 C 49.496094 160.324219 49.410156 161.625 49.410156 162.929688 L 49.410156 164.484375 C 49.410156 165.789062 49.496094 167.085938 49.667969 168.382812 C 49.839844 169.675781 50.09375 170.953125 50.433594 172.210938 C 50.769531 173.472656 51.191406 174.707031 51.691406 175.910156 C 52.191406 177.117188 52.765625 178.285156 53.421875 179.414062 C 54.074219 180.542969 54.796875 181.625 55.59375 182.660156 C 56.386719 183.695312 57.246094 184.675781 58.171875 185.597656 C 59.09375 186.519531 60.074219 187.378906 61.109375 188.171875 C 62.144531 188.96875 63.230469 189.691406 64.359375 190.34375 L 172.460938 252.695312 C 173.589844 253.351562 174.757812 253.929688 175.964844 254.429688 C 177.171875 254.929688 178.40625 255.351562 179.667969 255.6875 C 180.933594 256.027344 182.210938 256.28125 183.507812 256.453125 C 184.800781 256.625 186.101562 256.710938 187.410156 256.710938 C 188.714844 256.710938 190.015625 256.625 191.3125 256.453125 C 192.609375 256.28125 193.886719 256.027344 195.148438 255.6875 C 196.410156 255.351562 197.644531 254.929688 198.851562 254.429688 C 200.058594 253.929688 201.230469 253.351562 202.359375 252.695312 L 310.402344 190.34375 C 311.53125 189.691406 312.617188 188.96875 313.652344 188.171875 C 314.6875 187.378906 315.667969 186.519531 316.589844 185.597656 C 317.515625 184.675781 318.375 183.695312 319.167969 182.660156 C 319.964844 181.625 320.6875 180.542969 321.339844 179.414062 C 321.996094 178.285156 322.570312 177.117188 323.070312 175.910156 C 323.570312 174.707031 323.992188 173.472656 324.328125 172.210938 C 324.667969 170.953125 324.921875 169.675781 325.09375 168.382812 C 325.265625 167.085938 325.351562 165.789062 325.351562 164.484375 L 325.351562 162.929688 C 325.351562 161.625 325.269531 160.328125 325.097656 159.03125 C 324.929688 157.738281 324.671875 156.460938 324.335938 155.199219 C 323.996094 153.9375 323.578125 152.707031 323.078125 151.5 C 322.578125 150.292969 322.003906 149.125 321.347656 147.996094 C 320.695312 146.867188 319.972656 145.785156 319.175781 144.75 C 318.378906 143.714844 317.519531 142.734375 316.597656 141.8125 C 315.671875 140.890625 314.691406 140.03125 313.65625 139.238281 C 312.617188 138.445312 311.535156 137.722656 310.402344 137.070312 Z M 310.402344 137.070312 " fill-opacity="1" fill-rule="nonzero"/></g><path fill="#156cdd" d="M 272.335938 212.296875 L 310.402344 190.34375 C 311.589844 189.664062 312.722656 188.898438 313.792969 188.046875 L 272.335938 146.609375 Z M 272.335938 212.296875 " fill-opacity="1" fill-rule="nonzero"/><g clip-path="url(#d37237c49c)"><path fill="#156cdd" d="M 310.402344 185.285156 L 202.359375 247.410156 C 201.230469 248.0625 200.058594 248.640625 198.851562 249.140625 C 197.644531 249.644531 196.410156 250.0625 195.148438 250.402344 C 193.886719 250.738281 192.609375 250.996094 191.3125 251.164062 C 190.019531 251.335938 188.714844 251.421875 187.410156 251.421875 C 186.101562 251.421875 184.800781 251.335938 183.507812 251.164062 C 182.210938 250.996094 180.933594 250.738281 179.667969 250.402344 C 178.40625 250.0625 177.171875 249.644531 175.964844 249.140625 C 174.757812 248.640625 173.589844 248.0625 172.460938 247.410156 L 64.417969 185.285156 C 63.34375 184.675781 62.316406 184 61.328125 183.261719 C 60.339844 182.523438 59.398438 181.726562 58.507812 180.871094 C 57.621094 180.015625 56.785156 179.109375 56.011719 178.152344 C 55.234375 177.195312 54.519531 176.191406 53.867188 175.144531 C 53.214844 174.097656 52.628906 173.015625 52.109375 171.894531 C 51.59375 170.773438 51.144531 169.628906 50.769531 168.453125 C 50.394531 167.277344 50.09375 166.085938 49.863281 164.871094 C 49.636719 163.660156 49.484375 162.4375 49.410156 161.207031 L 49.410156 164.539062 C 49.410156 165.84375 49.496094 167.144531 49.667969 168.4375 C 49.839844 169.730469 50.09375 171.007812 50.433594 172.269531 C 50.769531 173.53125 51.191406 174.761719 51.691406 175.96875 C 52.191406 177.171875 52.765625 178.339844 53.421875 179.472656 C 54.074219 180.601562 54.796875 181.683594 55.59375 182.71875 C 56.386719 183.753906 57.246094 184.734375 58.171875 185.65625 C 59.09375 186.578125 60.074219 187.4375 61.109375 188.230469 C 62.144531 189.023438 63.230469 189.75 64.359375 190.402344 L 172.460938 252.695312 C 173.589844 253.351562 174.757812 253.929688 175.964844 254.429688 C 177.171875 254.929688 178.40625 255.351562 179.667969 255.6875 C 180.933594 256.027344 182.210938 256.28125 183.507812 256.453125 C 184.800781 256.625 186.101562 256.710938 187.410156 256.710938 C 188.714844 256.710938 190.015625 256.625 191.3125 256.453125 C 192.609375 256.28125 193.886719 256.027344 195.148438 255.6875 C 196.410156 255.351562 197.644531 254.929688 198.851562 254.429688 C 200.058594 253.929688 201.230469 253.351562 202.359375 252.695312 L 310.402344 190.34375 C 311.53125 189.691406 312.617188 188.96875 313.652344 188.171875 C 314.6875 187.378906 315.667969 186.519531 316.589844 185.597656 C 317.515625 184.675781 318.375 183.695312 319.167969 182.660156 C 319.964844 181.625 320.6875 180.542969 321.339844 179.414062 C 321.996094 178.285156 322.570312 177.117188 323.070312 175.910156 C 323.570312 174.707031 323.992188 173.472656 324.328125 172.210938 C 324.667969 170.953125 324.921875 169.675781 325.09375 168.382812 C 325.265625 167.085938 325.351562 165.789062 325.351562 164.484375 L 325.351562 162.929688 C 325.351562 162.300781 325.351562 161.78125 325.351562 161.148438 C 325.28125 162.382812 325.132812 163.605469 324.910156 164.820312 C 324.683594 166.03125 324.386719 167.226562 324.015625 168.40625 C 323.640625 169.582031 323.199219 170.730469 322.683594 171.851562 C 322.167969 172.976562 321.585938 174.058594 320.933594 175.109375 C 320.285156 176.160156 319.570312 177.164062 318.796875 178.125 C 318.023438 179.085938 317.191406 179.996094 316.304688 180.855469 C 315.414062 181.710938 314.476562 182.511719 313.488281 183.253906 C 312.503906 183.996094 311.472656 184.671875 310.402344 185.285156 Z M 310.402344 185.285156 " fill-opacity="1" fill-rule="nonzero"/></g><path fill="#ffffff" d="M 100.183594 210.976562 L 172.460938 252.695312 C 173.589844 253.351562 174.757812 253.929688 175.964844 254.429688 C 177.171875 254.929688 178.40625 255.351562 179.667969 255.6875 C 180.933594 256.027344 182.210938 256.28125 183.507812 256.453125 C 184.800781 256.625 186.101562 256.710938 187.410156 256.710938 C 188.714844 256.710938 190.019531 256.625 191.3125 256.453125 C 192.609375 256.28125 193.886719 256.027344 195.148438 255.6875 C 196.410156 255.351562 197.644531 254.929688 198.851562 254.429688 C 200.058594 253.929688 201.230469 253.351562 202.359375 252.695312 L 274.636719 210.976562 L 274.636719 152.300781 C 274.636719 151.753906 274.582031 151.210938 274.476562 150.675781 C 274.371094 150.136719 274.210938 149.617188 274.003906 149.109375 C 273.792969 148.605469 273.535156 148.125 273.230469 147.671875 C 272.929688 147.214844 272.582031 146.792969 272.195312 146.40625 C 271.808594 146.019531 271.386719 145.675781 270.933594 145.371094 C 270.476562 145.066406 269.996094 144.8125 269.492188 144.601562 C 268.984375 144.390625 268.464844 144.234375 267.925781 144.128906 C 267.390625 144.019531 266.847656 143.96875 266.300781 143.96875 L 108.519531 143.96875 C 107.972656 143.96875 107.429688 144.019531 106.894531 144.128906 C 106.355469 144.234375 105.835938 144.390625 105.328125 144.601562 C 104.824219 144.8125 104.34375 145.066406 103.886719 145.371094 C 103.433594 145.675781 103.011719 146.019531 102.625 146.40625 C 102.238281 146.792969 101.890625 147.214844 101.585938 147.671875 C 101.28125 148.125 101.027344 148.605469 100.816406 149.109375 C 100.605469 149.617188 100.449219 150.136719 100.34375 150.675781 C 100.234375 151.210938 100.183594 151.753906 100.183594 152.300781 Z M 100.183594 210.976562 " fill-opacity="1" fill-rule="nonzero"/><path fill="#dfe8f4" d="M 219.550781 182.585938 L 153.484375 182.585938 C 152.996094 182.585938 152.527344 182.492188 152.078125 182.304688 C 151.625 182.117188 151.226562 181.851562 150.882812 181.507812 C 150.539062 181.164062 150.273438 180.765625 150.085938 180.316406 C 149.898438 179.863281 149.804688 179.394531 149.804688 178.90625 C 149.804688 178.417969 149.898438 177.949219 150.085938 177.5 C 150.273438 177.050781 150.539062 176.652344 150.882812 176.308594 C 151.226562 175.960938 151.625 175.695312 152.078125 175.507812 C 152.527344 175.324219 152.996094 175.230469 153.484375 175.230469 L 219.550781 175.230469 C 220.039062 175.230469 220.507812 175.324219 220.960938 175.507812 C 221.410156 175.695312 221.808594 175.960938 222.15625 176.308594 C 222.5 176.652344 222.765625 177.050781 222.953125 177.5 C 223.140625 177.949219 223.230469 178.417969 223.230469 178.90625 C 223.230469 179.394531 223.140625 179.863281 222.953125 180.316406 C 222.765625 180.765625 222.5 181.164062 222.15625 181.507812 C 221.808594 181.851562 221.410156 182.117188 220.960938 182.304688 C 220.507812 182.492188 220.039062 182.585938 219.550781 182.585938 Z M 219.550781 182.585938 " fill-opacity="1" fill-rule="nonzero"/><path fill="#dfe8f4" d="M 219.550781 200.34375 L 153.484375 200.34375 C 152.996094 200.34375 152.527344 200.25 152.078125 200.0625 C 151.625 199.875 151.226562 199.609375 150.882812 199.265625 C 150.539062 198.921875 150.273438 198.523438 150.085938 198.074219 C 149.898438 197.621094 149.804688 197.152344 149.804688 196.664062 C 149.804688 196.175781 149.898438 195.707031 150.085938 195.257812 C 150.273438 194.808594 150.539062 194.410156 150.882812 194.066406 C 151.226562 193.71875 151.625 193.453125 152.078125 193.265625 C 152.527344 193.082031 152.996094 192.988281 153.484375 192.988281 L 219.550781 192.988281 C 220.039062 192.988281 220.507812 193.082031 220.960938 193.265625 C 221.410156 193.453125 221.808594 193.71875 222.15625 194.066406 C 222.5 194.410156 222.765625 194.808594 222.953125 195.257812 C 223.140625 195.707031 223.230469 196.175781 223.230469 196.664062 C 223.230469 197.152344 223.140625 197.621094 222.953125 198.074219 C 222.765625 198.523438 222.5 198.921875 222.15625 199.265625 C 221.808594 199.609375 221.410156 199.875 220.960938 200.0625 C 220.507812 200.25 220.039062 200.34375 219.550781 200.34375 Z M 219.550781 200.34375 " fill-opacity="1" fill-rule="nonzero"/><path fill="#dfe8f4" d="M 183.730469 218.160156 L 153.484375 218.160156 C 152.996094 218.160156 152.527344 218.066406 152.078125 217.878906 C 151.625 217.691406 151.226562 217.425781 150.882812 217.082031 C 150.539062 216.734375 150.273438 216.339844 150.085938 215.886719 C 149.898438 215.4375 149.804688 214.96875 149.804688 214.480469 C 149.804688 213.988281 149.898438 213.519531 150.082031 213.0625 C 150.269531 212.609375 150.535156 212.207031 150.878906 211.859375 C 151.222656 211.507812 151.621094 211.238281 152.070312 211.046875 C 152.523438 210.851562 152.992188 210.753906 153.484375 210.746094 L 183.730469 210.746094 C 184.21875 210.753906 184.691406 210.851562 185.140625 211.046875 C 185.59375 211.238281 185.992188 211.507812 186.335938 211.859375 C 186.679688 212.207031 186.945312 212.609375 187.128906 213.0625 C 187.316406 213.519531 187.410156 213.988281 187.410156 214.480469 C 187.410156 214.96875 187.316406 215.4375 187.128906 215.886719 C 186.941406 216.339844 186.675781 216.734375 186.332031 217.082031 C 185.988281 217.425781 185.589844 217.691406 185.136719 217.878906 C 184.6875 218.066406 184.21875 218.160156 183.730469 218.160156 Z M 183.730469 218.160156 " fill-opacity="1" fill-rule="nonzero"/><g fill="#007bfe" fill-opacity="1"><g transform="translate(87.978515, 285.06672)"><g><path d="M 29.78125 -30.328125 C 31.425781 -29.515625 32.25 -28.617188 32.25 -27.640625 C 32.25 -27.191406 32.039062 -26.519531 31.625 -25.625 L 20.03125 -2.09375 C 19.726562 -1.476562 19.257812 -0.984375 18.625 -0.609375 C 18 -0.234375 17.347656 -0.046875 16.671875 -0.046875 L 16.25 -0.046875 C 15.550781 -0.046875 14.882812 -0.234375 14.25 -0.609375 C 13.625 -0.984375 13.160156 -1.476562 12.859375 -2.09375 L 1.265625 -25.625 C 0.835938 -26.519531 0.625 -27.191406 0.625 -27.640625 C 0.625 -28.617188 1.453125 -29.515625 3.109375 -30.328125 C 4.035156 -30.796875 4.742188 -31.03125 5.234375 -31.03125 C 5.722656 -31.03125 6.09375 -30.972656 6.34375 -30.859375 C 6.59375 -30.753906 6.832031 -30.5625 7.0625 -30.28125 C 7.3125 -29.945312 7.539062 -29.578125 7.75 -29.171875 C 7.957031 -28.765625 8.492188 -27.601562 9.359375 -25.6875 C 10.234375 -23.769531 11.164062 -21.734375 12.15625 -19.578125 C 13.15625 -17.421875 14.09375 -15.378906 14.96875 -13.453125 C 15.851562 -11.535156 16.351562 -10.46875 16.46875 -10.25 L 24.859375 -28.640625 C 25.085938 -29.171875 25.285156 -29.59375 25.453125 -29.90625 C 25.953125 -30.65625 26.566406 -31.03125 27.296875 -31.03125 C 28.023438 -31.03125 28.851562 -30.796875 29.78125 -30.328125 Z M 29.78125 -30.328125 "/></g></g></g><g fill="#007bfe" fill-opacity="1"><g transform="translate(116.664502, 285.06672)"><g><path d="M 16.046875 -19.78125 C 16.210938 -21.351562 17.316406 -22.140625 19.359375 -22.140625 C 20.453125 -22.140625 21.265625 -22.050781 21.796875 -21.875 C 22.328125 -21.707031 22.695312 -21.414062 22.90625 -21 C 23.113281 -20.582031 23.238281 -20.210938 23.28125 -19.890625 C 23.332031 -19.566406 23.359375 -19.082031 23.359375 -18.4375 L 23.359375 -3.734375 C 23.359375 -3.085938 23.332031 -2.601562 23.28125 -2.28125 C 23.238281 -1.96875 23.125 -1.597656 22.9375 -1.171875 C 22.539062 -0.441406 21.578125 -0.078125 20.046875 -0.078125 C 18.523438 -0.078125 17.503906 -0.265625 16.984375 -0.640625 C 16.472656 -1.023438 16.175781 -1.582031 16.09375 -2.3125 C 15.050781 -0.820312 13.316406 -0.078125 10.890625 -0.078125 C 8.472656 -0.078125 6.226562 -1.179688 4.15625 -3.390625 C 2.082031 -5.609375 1.046875 -8.179688 1.046875 -11.109375 C 1.046875 -14.035156 2.085938 -16.597656 4.171875 -18.796875 C 6.265625 -20.992188 8.554688 -22.09375 11.046875 -22.09375 C 11.992188 -22.09375 12.859375 -21.921875 13.640625 -21.578125 C 14.429688 -21.242188 14.976562 -20.929688 15.28125 -20.640625 C 15.59375 -20.347656 15.847656 -20.0625 16.046875 -19.78125 Z M 8.40625 -11.046875 C 8.40625 -10.117188 8.765625 -9.285156 9.484375 -8.546875 C 10.210938 -7.804688 11.09375 -7.4375 12.125 -7.4375 C 13.164062 -7.4375 14.03125 -7.8125 14.71875 -8.5625 C 15.40625 -9.320312 15.75 -10.15625 15.75 -11.0625 C 15.75 -11.976562 15.421875 -12.828125 14.765625 -13.609375 C 14.109375 -14.390625 13.222656 -14.78125 12.109375 -14.78125 C 11.003906 -14.78125 10.109375 -14.390625 9.421875 -13.609375 C 8.742188 -12.828125 8.40625 -11.972656 8.40625 -11.046875 Z M 8.40625 -11.046875 "/></g></g></g><g fill="#007bfe" fill-opacity="1"><g transform="translate(141.696495, 285.06672)"><g><path d="M 13.984375 -22.140625 C 16.785156 -22.140625 19.113281 -21.066406 20.96875 -18.921875 C 22.832031 -16.773438 23.765625 -14.164062 23.765625 -11.09375 L 23.765625 -3.703125 C 23.765625 -3.054688 23.742188 -2.570312 23.703125 -2.25 C 23.660156 -1.925781 23.546875 -1.566406 23.359375 -1.171875 C 22.960938 -0.421875 21.867188 -0.046875 20.078125 -0.046875 C 18.085938 -0.046875 16.9375 -0.5625 16.625 -1.59375 C 16.457031 -2.070312 16.375 -2.785156 16.375 -3.734375 L 16.375 -11.125 C 16.375 -12.28125 16.046875 -13.175781 15.390625 -13.8125 C 14.734375 -14.457031 13.851562 -14.78125 12.75 -14.78125 C 11.644531 -14.78125 10.75 -14.441406 10.0625 -13.765625 C 9.375 -13.097656 9.03125 -12.21875 9.03125 -11.125 L 9.03125 -3.703125 C 9.03125 -3.054688 9.007812 -2.570312 8.96875 -2.25 C 8.925781 -1.925781 8.789062 -1.566406 8.5625 -1.171875 C 8.195312 -0.421875 7.117188 -0.046875 5.328125 -0.046875 C 3.566406 -0.046875 2.488281 -0.421875 2.09375 -1.171875 C 1.90625 -1.597656 1.789062 -1.96875 1.75 -2.28125 C 1.707031 -2.601562 1.6875 -3.085938 1.6875 -3.734375 L 1.6875 -18.609375 C 1.6875 -19.222656 1.707031 -19.691406 1.75 -20.015625 C 1.789062 -20.335938 1.921875 -20.691406 2.140625 -21.078125 C 2.535156 -21.785156 3.613281 -22.140625 5.375 -22.140625 C 7.082031 -22.140625 8.132812 -21.816406 8.53125 -21.171875 C 8.8125 -20.691406 8.953125 -20.117188 8.953125 -19.453125 C 9.054688 -19.640625 9.304688 -19.914062 9.703125 -20.28125 C 10.097656 -20.644531 10.476562 -20.941406 10.84375 -21.171875 C 11.789062 -21.816406 12.835938 -22.140625 13.984375 -22.140625 Z M 13.984375 -22.140625 "/></g></g></g><g fill="#007bfe" fill-opacity="1"><g transform="translate(167.148485, 285.06672)"><g><path d="M 8.609375 -11.0625 C 8.609375 -9.875 9 -8.953125 9.78125 -8.296875 C 10.570312 -7.640625 11.40625 -7.3125 12.28125 -7.3125 C 13.164062 -7.3125 13.992188 -7.566406 14.765625 -8.078125 C 15.535156 -8.597656 16.15625 -8.859375 16.625 -8.859375 C 17.46875 -8.859375 18.492188 -8.117188 19.703125 -6.640625 C 20.335938 -5.828125 20.65625 -5.097656 20.65625 -4.453125 C 20.65625 -3.390625 19.890625 -2.394531 18.359375 -1.46875 C 16.753906 -0.351562 14.789062 0.203125 12.46875 0.203125 C 9.863281 0.203125 7.359375 -0.734375 4.953125 -2.609375 C 3.804688 -3.503906 2.867188 -4.695312 2.140625 -6.1875 C 1.410156 -7.6875 1.046875 -9.335938 1.046875 -11.140625 C 1.046875 -12.953125 1.410156 -14.59375 2.140625 -16.0625 C 2.867188 -17.53125 3.804688 -18.710938 4.953125 -19.609375 C 7.273438 -21.460938 9.753906 -22.390625 12.390625 -22.390625 C 13.453125 -22.390625 14.488281 -22.238281 15.5 -21.9375 C 16.507812 -21.644531 17.25 -21.359375 17.71875 -21.078125 L 18.390625 -20.65625 C 18.898438 -20.320312 19.296875 -20.054688 19.578125 -19.859375 C 20.296875 -19.304688 20.65625 -18.671875 20.65625 -17.953125 C 20.65625 -17.242188 20.363281 -16.441406 19.78125 -15.546875 C 18.769531 -14.003906 17.804688 -13.234375 16.890625 -13.234375 C 16.359375 -13.234375 15.597656 -13.539062 14.609375 -14.15625 C 14.109375 -14.632812 13.390625 -14.875 12.453125 -14.875 C 11.515625 -14.875 10.640625 -14.535156 9.828125 -13.859375 C 9.015625 -13.191406 8.609375 -12.257812 8.609375 -11.0625 Z M 8.609375 -11.0625 "/></g></g></g><g fill="#007bfe" fill-opacity="1"><g transform="translate(188.86248, 285.06672)"><g><path d="M 1.046875 -11.046875 C 1.046875 -14.410156 2.222656 -17.179688 4.578125 -19.359375 C 6.929688 -21.546875 9.617188 -22.640625 12.640625 -22.640625 C 15.660156 -22.640625 18.332031 -21.550781 20.65625 -19.375 C 22.988281 -17.207031 24.15625 -14.445312 24.15625 -11.09375 C 24.15625 -8.769531 23.550781 -6.703125 22.34375 -4.890625 C 21.132812 -3.085938 19.671875 -1.757812 17.953125 -0.90625 C 16.234375 -0.0507812 14.445312 0.375 12.59375 0.375 C 10.75 0.375 8.957031 -0.078125 7.21875 -0.984375 C 5.488281 -1.898438 4.023438 -3.242188 2.828125 -5.015625 C 1.640625 -6.796875 1.046875 -8.804688 1.046875 -11.046875 Z M 9.828125 -8.046875 C 10.722656 -7.359375 11.628906 -7.015625 12.546875 -7.015625 C 13.472656 -7.015625 14.398438 -7.363281 15.328125 -8.0625 C 16.253906 -8.757812 16.71875 -9.796875 16.71875 -11.171875 C 16.71875 -12.546875 16.28125 -13.566406 15.40625 -14.234375 C 14.539062 -14.910156 13.601562 -15.25 12.59375 -15.25 C 11.59375 -15.25 10.65625 -14.894531 9.78125 -14.1875 C 8.914062 -13.488281 8.484375 -12.460938 8.484375 -11.109375 C 8.484375 -9.753906 8.929688 -8.734375 9.828125 -8.046875 Z M 9.828125 -8.046875 "/></g></g></g><g fill="#007bfe" fill-opacity="1"><g transform="translate(214.062472, 285.06672)"><g><path d="M 1.6875 -18.4375 C 1.6875 -19.082031 1.707031 -19.566406 1.75 -19.890625 C 1.789062 -20.210938 1.90625 -20.582031 2.09375 -21 C 2.488281 -21.726562 3.582031 -22.09375 5.375 -22.09375 C 6.71875 -22.09375 7.671875 -21.851562 8.234375 -21.375 C 8.710938 -20.988281 8.960938 -20.390625 8.984375 -19.578125 C 9.015625 -19.296875 9.03125 -18.890625 9.03125 -18.359375 L 9.03125 -3.65625 C 9.03125 -3.007812 9.007812 -2.523438 8.96875 -2.203125 C 8.925781 -1.878906 8.789062 -1.507812 8.5625 -1.09375 C 8.195312 -0.363281 7.117188 0 5.328125 0 C 3.566406 0 2.488281 -0.378906 2.09375 -1.140625 C 1.90625 -1.554688 1.789062 -1.914062 1.75 -2.21875 C 1.707031 -2.53125 1.6875 -3.023438 1.6875 -3.703125 Z M 8.59375 -26.234375 C 8.382812 -25.828125 8.007812 -25.535156 7.46875 -25.359375 C 6.9375 -25.191406 6.226562 -25.109375 5.34375 -25.109375 C 4.46875 -25.109375 3.765625 -25.191406 3.234375 -25.359375 C 2.703125 -25.535156 2.332031 -25.832031 2.125 -26.25 C 1.914062 -26.664062 1.789062 -27.035156 1.75 -27.359375 C 1.707031 -27.679688 1.6875 -28.164062 1.6875 -28.8125 C 1.6875 -29.457031 1.707031 -29.941406 1.75 -30.265625 C 1.789062 -30.585938 1.90625 -30.941406 2.09375 -31.328125 C 2.488281 -32.085938 3.582031 -32.46875 5.375 -32.46875 C 7.132812 -32.46875 8.195312 -32.085938 8.5625 -31.328125 C 8.789062 -30.910156 8.925781 -30.539062 8.96875 -30.21875 C 9.007812 -29.894531 9.03125 -29.410156 9.03125 -28.765625 C 9.03125 -28.117188 9.007812 -27.632812 8.96875 -27.3125 C 8.925781 -27 8.800781 -26.640625 8.59375 -26.234375 Z M 8.59375 -26.234375 "/></g></g></g><g fill="#007bfe" fill-opacity="1"><g transform="translate(224.77247, 285.06672)"><g><path d="M 1.6875 -28.859375 C 1.6875 -29.492188 1.707031 -29.972656 1.75 -30.296875 C 1.789062 -30.617188 1.90625 -30.992188 2.09375 -31.421875 C 2.488281 -32.171875 3.582031 -32.546875 5.375 -32.546875 C 7.082031 -32.546875 8.144531 -32.171875 8.5625 -31.421875 C 8.789062 -30.992188 8.925781 -30.613281 8.96875 -30.28125 C 9.007812 -29.945312 9.03125 -29.457031 9.03125 -28.8125 L 9.03125 -9.359375 C 9.03125 -8.359375 9.113281 -7.722656 9.28125 -7.453125 C 9.445312 -7.191406 9.816406 -7.0625 10.390625 -7.0625 C 10.960938 -7.0625 11.347656 -7.039062 11.546875 -7 C 11.742188 -6.957031 11.984375 -6.835938 12.265625 -6.640625 C 12.828125 -6.273438 13.109375 -5.28125 13.109375 -3.65625 C 13.109375 -1.894531 12.828125 -0.816406 12.265625 -0.421875 C 11.535156 0.0859375 9.800781 0.171875 7.0625 -0.171875 C 4.90625 -0.453125 3.503906 -1.164062 2.859375 -2.3125 C 2.078125 -3.6875 1.6875 -5.867188 1.6875 -8.859375 Z M 1.6875 -28.859375 "/></g></g></g><g fill="#007bfe" fill-opacity="1"><g transform="translate(238.506466, 285.06672)"><g><path d="M 1.6875 -28.859375 C 1.6875 -29.492188 1.707031 -29.972656 1.75 -30.296875 C 1.789062 -30.617188 1.90625 -30.992188 2.09375 -31.421875 C 2.488281 -32.171875 3.582031 -32.546875 5.375 -32.546875 C 7.082031 -32.546875 8.144531 -32.171875 8.5625 -31.421875 C 8.789062 -30.992188 8.925781 -30.613281 8.96875 -30.28125 C 9.007812 -29.945312 9.03125 -29.457031 9.03125 -28.8125 L 9.03125 -9.359375 C 9.03125 -8.359375 9.113281 -7.722656 9.28125 -7.453125 C 9.445312 -7.191406 9.816406 -7.0625 10.390625 -7.0625 C 10.960938 -7.0625 11.347656 -7.039062 11.546875 -7 C 11.742188 -6.957031 11.984375 -6.835938 12.265625 -6.640625 C 12.828125 -6.273438 13.109375 -5.28125 13.109375 -3.65625 C 13.109375 -1.894531 12.828125 -0.816406 12.265625 -0.421875 C 11.535156 0.0859375 9.800781 0.171875 7.0625 -0.171875 C 4.90625 -0.453125 3.503906 -1.164062 2.859375 -2.3125 C 2.078125 -3.6875 1.6875 -5.867188 1.6875 -8.859375 Z M 1.6875 -28.859375 "/></g></g></g><g fill="#007bfe" fill-opacity="1"><g transform="translate(252.240463, 285.06672)"><g><path d="M 1.6875 -18.4375 C 1.6875 -19.082031 1.707031 -19.566406 1.75 -19.890625 C 1.789062 -20.210938 1.90625 -20.582031 2.09375 -21 C 2.488281 -21.726562 3.582031 -22.09375 5.375 -22.09375 C 6.71875 -22.09375 7.671875 -21.851562 8.234375 -21.375 C 8.710938 -20.988281 8.960938 -20.390625 8.984375 -19.578125 C 9.015625 -19.296875 9.03125 -18.890625 9.03125 -18.359375 L 9.03125 -3.65625 C 9.03125 -3.007812 9.007812 -2.523438 8.96875 -2.203125 C 8.925781 -1.878906 8.789062 -1.507812 8.5625 -1.09375 C 8.195312 -0.363281 7.117188 0 5.328125 0 C 3.566406 0 2.488281 -0.378906 2.09375 -1.140625 C 1.90625 -1.554688 1.789062 -1.914062 1.75 -2.21875 C 1.707031 -2.53125 1.6875 -3.023438 1.6875 -3.703125 Z M 8.59375 -26.234375 C 8.382812 -25.828125 8.007812 -25.535156 7.46875 -25.359375 C 6.9375 -25.191406 6.226562 -25.109375 5.34375 -25.109375 C 4.46875 -25.109375 3.765625 -25.191406 3.234375 -25.359375 C 2.703125 -25.535156 2.332031 -25.832031 2.125 -26.25 C 1.914062 -26.664062 1.789062 -27.035156 1.75 -27.359375 C 1.707031 -27.679688 1.6875 -28.164062 1.6875 -28.8125 C 1.6875 -29.457031 1.707031 -29.941406 1.75 -30.265625 C 1.789062 -30.585938 1.90625 -30.941406 2.09375 -31.328125 C 2.488281 -32.085938 3.582031 -32.46875 5.375 -32.46875 C 7.132812 -32.46875 8.195312 -32.085938 8.5625 -31.328125 C 8.789062 -30.910156 8.925781 -30.539062 8.96875 -30.21875 C 9.007812 -29.894531 9.03125 -29.410156 9.03125 -28.765625 C 9.03125 -28.117188 9.007812 -27.632812 8.96875 -27.3125 C 8.925781 -27 8.800781 -26.640625 8.59375 -26.234375 Z M 8.59375 -26.234375 "/></g></g></g><g fill="#007bfe" fill-opacity="1"><g transform="translate(262.950461, 285.06672)"><g><path d="M 23.015625 -13.703125 C 23.015625 -11.984375 22.585938 -10.710938 21.734375 -9.890625 C 20.878906 -9.066406 19.9375 -8.65625 18.90625 -8.65625 L 8.953125 -8.65625 C 8.953125 -7.863281 9.410156 -7.203125 10.328125 -6.671875 C 11.253906 -6.140625 12.179688 -5.875 13.109375 -5.875 C 14.734375 -5.875 16.003906 -6.046875 16.921875 -6.390625 L 17.390625 -6.546875 C 18.054688 -6.859375 18.613281 -7.015625 19.0625 -7.015625 C 19.957031 -7.015625 20.726562 -6.382812 21.375 -5.125 C 21.738281 -4.363281 21.921875 -3.71875 21.921875 -3.1875 C 21.921875 -0.695312 18.941406 0.546875 12.984375 0.546875 C 10.910156 0.546875 9.066406 0.191406 7.453125 -0.515625 C 5.847656 -1.234375 4.597656 -2.179688 3.703125 -3.359375 C 1.929688 -5.628906 1.046875 -8.164062 1.046875 -10.96875 C 1.046875 -14.488281 2.1875 -17.304688 4.46875 -19.421875 C 6.75 -21.535156 9.597656 -22.59375 13.015625 -22.59375 C 16.910156 -22.59375 19.769531 -21.222656 21.59375 -18.484375 C 22.539062 -17.023438 23.015625 -15.429688 23.015625 -13.703125 Z M 14.15625 -12.46875 C 15.21875 -12.46875 15.75 -12.914062 15.75 -13.8125 C 15.75 -14.457031 15.503906 -14.972656 15.015625 -15.359375 C 14.523438 -15.753906 13.820312 -15.953125 12.90625 -15.953125 C 12 -15.953125 11.097656 -15.582031 10.203125 -14.84375 C 9.304688 -14.101562 8.859375 -13.3125 8.859375 -12.46875 Z M 14.15625 -12.46875 "/></g></g></g><g fill="#000000" fill-opacity="1"><g transform="translate(163.098627, 300.366719)"><g><path d="M 12.203125 0 L 8.828125 0 L 4.34375 -6.78125 L 4.34375 0 L 0.96875 0 L 0.96875 -12.140625 L 4.34375 -12.140625 L 8.828125 -5.265625 L 8.828125 -12.140625 L 12.203125 -12.140625 Z M 12.203125 0 "/></g></g></g><g fill="#000000" fill-opacity="1"><g transform="translate(176.267927, 300.366719)"><g><path d="M 10.1875 -4.9375 C 10.1875 -4.675781 10.171875 -4.414062 10.140625 -4.15625 L 3.75 -4.15625 C 3.789062 -3.625 3.9375 -3.226562 4.1875 -2.96875 C 4.445312 -2.707031 4.78125 -2.578125 5.1875 -2.578125 C 5.75 -2.578125 6.148438 -2.832031 6.390625 -3.34375 L 9.984375 -3.34375 C 9.835938 -2.675781 9.546875 -2.082031 9.109375 -1.5625 C 8.679688 -1.039062 8.140625 -0.628906 7.484375 -0.328125 C 6.835938 -0.0234375 6.117188 0.125 5.328125 0.125 C 4.367188 0.125 3.519531 -0.0703125 2.78125 -0.46875 C 2.039062 -0.875 1.457031 -1.453125 1.03125 -2.203125 C 0.613281 -2.953125 0.40625 -3.832031 0.40625 -4.84375 C 0.40625 -5.851562 0.613281 -6.726562 1.03125 -7.46875 C 1.445312 -8.207031 2.023438 -8.773438 2.765625 -9.171875 C 3.503906 -9.578125 4.359375 -9.78125 5.328125 -9.78125 C 6.273438 -9.78125 7.113281 -9.582031 7.84375 -9.1875 C 8.582031 -8.800781 9.15625 -8.242188 9.5625 -7.515625 C 9.976562 -6.785156 10.1875 -5.925781 10.1875 -4.9375 Z M 6.75 -5.78125 C 6.75 -6.195312 6.609375 -6.519531 6.328125 -6.75 C 6.054688 -6.988281 5.710938 -7.109375 5.296875 -7.109375 C 4.890625 -7.109375 4.550781 -6.992188 4.28125 -6.765625 C 4.019531 -6.546875 3.847656 -6.21875 3.765625 -5.78125 Z M 6.75 -5.78125 "/></g></g></g><g fill="#000000" fill-opacity="1"><g transform="translate(186.872228, 300.366719)"><g><path d="M 15.234375 -9.65625 L 12.78125 0 L 8.984375 0 L 7.640625 -5.859375 L 6.25 0 L 2.484375 0 L 0.03125 -9.65625 L 3.390625 -9.65625 L 4.484375 -3.25 L 5.90625 -9.65625 L 9.515625 -9.65625 L 11 -3.234375 L 12.078125 -9.65625 Z M 15.234375 -9.65625 "/></g></g></g><g fill="#000000" fill-opacity="1"><g transform="translate(202.1073, 300.366719)"><g><path d="M 5.078125 0.125 C 4.203125 0.125 3.421875 -0.0195312 2.734375 -0.3125 C 2.054688 -0.601562 1.519531 -1.003906 1.125 -1.515625 C 0.726562 -2.035156 0.507812 -2.613281 0.46875 -3.25 L 3.734375 -3.25 C 3.785156 -2.945312 3.929688 -2.707031 4.171875 -2.53125 C 4.410156 -2.351562 4.707031 -2.265625 5.0625 -2.265625 C 5.332031 -2.265625 5.546875 -2.320312 5.703125 -2.4375 C 5.867188 -2.5625 5.953125 -2.710938 5.953125 -2.890625 C 5.953125 -3.128906 5.820312 -3.304688 5.5625 -3.421875 C 5.300781 -3.535156 4.863281 -3.664062 4.25 -3.8125 C 3.5625 -3.945312 2.988281 -4.097656 2.53125 -4.265625 C 2.070312 -4.441406 1.671875 -4.722656 1.328125 -5.109375 C 0.992188 -5.503906 0.828125 -6.035156 0.828125 -6.703125 C 0.828125 -7.273438 0.976562 -7.789062 1.28125 -8.25 C 1.59375 -8.71875 2.050781 -9.085938 2.65625 -9.359375 C 3.257812 -9.640625 3.988281 -9.78125 4.84375 -9.78125 C 6.101562 -9.78125 7.09375 -9.46875 7.8125 -8.84375 C 8.539062 -8.226562 8.960938 -7.414062 9.078125 -6.40625 L 6.03125 -6.40625 C 5.96875 -6.71875 5.828125 -6.957031 5.609375 -7.125 C 5.398438 -7.289062 5.117188 -7.375 4.765625 -7.375 C 4.492188 -7.375 4.285156 -7.320312 4.140625 -7.21875 C 3.992188 -7.113281 3.921875 -6.96875 3.921875 -6.78125 C 3.921875 -6.550781 4.050781 -6.375 4.3125 -6.25 C 4.582031 -6.132812 5.007812 -6.015625 5.59375 -5.890625 C 6.289062 -5.742188 6.875 -5.578125 7.34375 -5.390625 C 7.8125 -5.203125 8.21875 -4.90625 8.5625 -4.5 C 8.914062 -4.09375 9.09375 -3.539062 9.09375 -2.84375 C 9.09375 -2.28125 8.925781 -1.773438 8.59375 -1.328125 C 8.269531 -0.878906 7.804688 -0.523438 7.203125 -0.265625 C 6.597656 -0.00390625 5.890625 0.125 5.078125 0.125 Z M 5.078125 0.125 "/></g></g></g></svg>