<svg xmlns="http://www.w3.org/2000/svg" xmlns:xlink="http://www.w3.org/1999/xlink" width="500" zoomAndPan="magnify" viewBox="0 0 375 374.999991" height="500" preserveAspectRatio="xMidYMid meet" version="1.0"><defs><clipPath id="05302e4a08"><path d="M 49.410156 70 L 325.410156 70 L 325.410156 305 L 49.410156 305 Z M 49.410156 70 " clip-rule="nonzero"/></clipPath><clipPath id="b7ddf1fbdb"><path d="M 150 85 L 325.410156 85 L 325.410156 305 L 150 305 Z M 150 85 " clip-rule="nonzero"/></clipPath><clipPath id="8d36883b85"><path d="M 49.410156 70 L 325.410156 70 L 325.410156 257 L 49.410156 257 Z M 49.410156 70 " clip-rule="nonzero"/></clipPath><clipPath id="25611f54e2"><path d="M 49.410156 161 L 325.410156 161 L 325.410156 257 L 49.410156 257 Z M 49.410156 161 " clip-rule="nonzero"/></clipPath></defs><g clip-path="url(#05302e4a08)"><path fill="#dfe8f4" d="M 172.460938 75.003906 L 64.417969 137.070312 C 63.28125 137.71875 62.195312 138.441406 61.15625 139.234375 C 60.117188 140.027344 59.132812 140.882812 58.207031 141.804688 C 57.28125 142.726562 56.417969 143.703125 55.617188 144.738281 C 54.820312 145.773438 54.09375 146.855469 53.4375 147.984375 C 52.78125 149.117188 52.203125 150.285156 51.699219 151.492188 C 51.199219 152.699219 50.777344 153.929688 50.4375 155.191406 C 50.097656 156.453125 49.839844 157.734375 49.667969 159.027344 C 49.496094 160.324219 49.410156 161.625 49.410156 162.929688 L 49.410156 274.992188 C 49.410156 275.972656 49.457031 276.949219 49.554688 277.921875 C 49.648438 278.898438 49.792969 279.863281 49.984375 280.824219 C 50.175781 281.785156 50.414062 282.730469 50.695312 283.667969 C 50.980469 284.605469 51.3125 285.527344 51.6875 286.429688 C 52.058594 287.335938 52.480469 288.21875 52.941406 289.082031 C 53.402344 289.945312 53.90625 290.78125 54.449219 291.597656 C 54.992188 292.410156 55.574219 293.195312 56.195312 293.953125 C 56.816406 294.707031 57.476562 295.433594 58.167969 296.125 C 58.859375 296.816406 59.585938 297.472656 60.339844 298.09375 C 61.097656 298.714844 61.882812 299.296875 62.699219 299.839844 C 63.511719 300.386719 64.351562 300.886719 65.214844 301.347656 C 66.078125 301.808594 66.960938 302.226562 67.867188 302.601562 C 68.773438 302.976562 69.691406 303.304688 70.628906 303.589844 C 71.566406 303.875 72.515625 304.113281 73.476562 304.304688 C 74.4375 304.496094 75.40625 304.636719 76.378906 304.734375 C 77.355469 304.828125 78.332031 304.878906 79.308594 304.878906 L 295.507812 304.878906 C 296.488281 304.878906 297.464844 304.828125 298.441406 304.734375 C 299.414062 304.636719 300.382812 304.496094 301.34375 304.304688 C 302.304688 304.113281 303.253906 303.875 304.1875 303.589844 C 305.125 303.304688 306.046875 302.976562 306.953125 302.601562 C 307.855469 302.226562 308.742188 301.808594 309.605469 301.347656 C 310.46875 300.886719 311.308594 300.386719 312.121094 299.839844 C 312.933594 299.296875 313.722656 298.714844 314.476562 298.09375 C 315.234375 297.472656 315.960938 296.816406 316.652344 296.125 C 317.34375 295.433594 318 294.707031 318.621094 293.953125 C 319.242188 293.195312 319.828125 292.410156 320.371094 291.597656 C 320.914062 290.78125 321.417969 289.945312 321.878906 289.082031 C 322.339844 288.21875 322.757812 287.335938 323.132812 286.429688 C 323.507812 285.527344 323.839844 284.605469 324.121094 283.667969 C 324.40625 282.730469 324.644531 281.785156 324.835938 280.824219 C 325.027344 279.863281 325.167969 278.898438 325.265625 277.921875 C 325.363281 276.949219 325.410156 275.972656 325.410156 274.992188 L 325.410156 162.929688 C 325.410156 161.625 325.324219 160.328125 325.15625 159.03125 C 324.984375 157.738281 324.730469 156.460938 324.394531 155.199219 C 324.054688 153.9375 323.636719 152.707031 323.136719 151.5 C 322.636719 150.292969 322.058594 149.125 321.40625 147.996094 C 320.753906 146.867188 320.027344 145.785156 319.234375 144.75 C 318.4375 143.714844 317.578125 142.734375 316.652344 141.8125 C 315.730469 140.890625 314.75 140.03125 313.710938 139.238281 C 312.675781 138.445312 311.589844 137.722656 310.460938 137.070312 L 202.359375 75.003906 C 201.230469 74.351562 200.058594 73.773438 198.851562 73.273438 C 197.644531 72.773438 196.410156 72.351562 195.148438 72.011719 C 193.886719 71.675781 192.609375 71.421875 191.3125 71.25 C 190.019531 71.078125 188.714844 70.992188 187.410156 70.992188 C 186.101562 70.992188 184.800781 71.078125 183.507812 71.25 C 182.210938 71.421875 180.933594 71.675781 179.667969 72.011719 C 178.40625 72.351562 177.171875 72.773438 175.964844 73.273438 C 174.757812 73.773438 173.589844 74.351562 172.460938 75.003906 Z M 172.460938 75.003906 " fill-opacity="1" fill-rule="nonzero"/></g><g clip-path="url(#b7ddf1fbdb)"><path fill="#ccd8e5" d="M 325.410156 274.992188 L 325.410156 162.929688 C 325.410156 161.625 325.324219 160.328125 325.15625 159.03125 C 324.984375 157.738281 324.730469 156.460938 324.394531 155.199219 C 324.054688 153.9375 323.636719 152.707031 323.136719 151.5 C 322.636719 150.292969 322.058594 149.125 321.40625 147.996094 C 320.753906 146.867188 320.027344 145.785156 319.234375 144.75 C 318.4375 143.714844 317.578125 142.734375 316.652344 141.8125 C 315.730469 140.890625 314.75 140.03125 313.710938 139.238281 C 312.675781 138.445312 311.589844 137.722656 310.460938 137.070312 L 221.507812 85.753906 L 150.550781 239.996094 L 240.136719 290.394531 C 244.347656 292.757812 248.691406 294.84375 253.167969 296.648438 C 257.648438 298.457031 262.222656 299.96875 266.894531 301.191406 C 271.5625 302.414062 276.292969 303.332031 281.082031 303.949219 C 285.871094 304.566406 290.679688 304.875 295.507812 304.878906 C 296.488281 304.878906 297.46875 304.832031 298.441406 304.738281 C 299.417969 304.644531 300.386719 304.503906 301.347656 304.3125 C 302.308594 304.125 303.257812 303.886719 304.195312 303.605469 C 305.132812 303.320312 306.054688 302.992188 306.960938 302.617188 C 307.867188 302.246094 308.75 301.828125 309.617188 301.367188 C 310.480469 300.90625 311.320312 300.402344 312.136719 299.859375 C 312.949219 299.316406 313.734375 298.734375 314.492188 298.113281 C 315.25 297.492188 315.976562 296.835938 316.667969 296.140625 C 317.363281 295.449219 318.019531 294.722656 318.640625 293.96875 C 319.261719 293.210938 319.84375 292.425781 320.386719 291.609375 C 320.933594 290.796875 321.433594 289.957031 321.894531 289.09375 C 322.359375 288.226562 322.773438 287.34375 323.148438 286.4375 C 323.523438 285.535156 323.851562 284.613281 324.136719 283.675781 C 324.417969 282.738281 324.65625 281.789062 324.84375 280.828125 C 325.035156 279.867188 325.175781 278.898438 325.269531 277.925781 C 325.367188 276.949219 325.410156 275.972656 325.410156 274.992188 Z M 325.410156 274.992188 " fill-opacity="1" fill-rule="nonzero"/></g><g clip-path="url(#8d36883b85)"><path fill="#0795ff" d="M 310.402344 137.070312 L 202.359375 75.003906 C 201.230469 74.351562 200.058594 73.773438 198.851562 73.273438 C 197.644531 72.773438 196.410156 72.351562 195.148438 72.011719 C 193.886719 71.675781 192.609375 71.421875 191.3125 71.25 C 190.019531 71.078125 188.714844 70.992188 187.410156 70.992188 C 186.101562 70.992188 184.800781 71.078125 183.507812 71.25 C 182.210938 71.421875 180.933594 71.675781 179.667969 72.011719 C 178.40625 72.351562 177.171875 72.773438 175.964844 73.273438 C 174.757812 73.773438 173.589844 74.351562 172.460938 75.003906 L 64.417969 137.070312 C 63.28125 137.71875 62.195312 138.441406 61.15625 139.234375 C 60.117188 140.027344 59.132812 140.882812 58.207031 141.804688 C 57.28125 142.726562 56.417969 143.703125 55.617188 144.738281 C 54.820312 145.773438 54.09375 146.855469 53.4375 147.984375 C 52.78125 149.117188 52.203125 150.285156 51.699219 151.492188 C 51.199219 152.699219 50.777344 153.929688 50.4375 155.191406 C 50.097656 156.453125 49.839844 157.734375 49.667969 159.027344 C 49.496094 160.324219 49.410156 161.625 49.410156 162.929688 L 49.410156 164.484375 C 49.410156 165.789062 49.496094 167.085938 49.667969 168.382812 C 49.839844 169.675781 50.09375 170.953125 50.433594 172.210938 C 50.769531 173.472656 51.191406 174.707031 51.691406 175.910156 C 52.191406 177.117188 52.765625 178.285156 53.421875 179.414062 C 54.074219 180.542969 54.796875 181.625 55.59375 182.660156 C 56.386719 183.695312 57.246094 184.675781 58.171875 185.597656 C 59.09375 186.519531 60.074219 187.378906 61.109375 188.171875 C 62.144531 188.96875 63.230469 189.691406 64.359375 190.34375 L 172.460938 252.695312 C 173.589844 253.351562 174.757812 253.929688 175.964844 254.429688 C 177.171875 254.929688 178.40625 255.351562 179.667969 255.6875 C 180.933594 256.027344 182.210938 256.28125 183.507812 256.453125 C 184.800781 256.625 186.101562 256.710938 187.410156 256.710938 C 188.714844 256.710938 190.015625 256.625 191.3125 256.453125 C 192.609375 256.28125 193.886719 256.027344 195.148438 255.6875 C 196.410156 255.351562 197.644531 254.929688 198.851562 254.429688 C 200.058594 253.929688 201.230469 253.351562 202.359375 252.695312 L 310.402344 190.34375 C 311.53125 189.691406 312.617188 188.96875 313.652344 188.171875 C 314.6875 187.378906 315.667969 186.519531 316.589844 185.597656 C 317.515625 184.675781 318.375 183.695312 319.167969 182.660156 C 319.964844 181.625 320.6875 180.542969 321.339844 179.414062 C 321.996094 178.285156 322.570312 177.117188 323.070312 175.910156 C 323.570312 174.707031 323.992188 173.472656 324.328125 172.210938 C 324.667969 170.953125 324.921875 169.675781 325.09375 168.382812 C 325.265625 167.085938 325.351562 165.789062 325.351562 164.484375 L 325.351562 162.929688 C 325.351562 161.625 325.269531 160.328125 325.097656 159.03125 C 324.929688 157.738281 324.671875 156.460938 324.335938 155.199219 C 323.996094 153.9375 323.578125 152.707031 323.078125 151.5 C 322.578125 150.292969 322.003906 149.125 321.347656 147.996094 C 320.695312 146.867188 319.972656 145.785156 319.175781 144.75 C 318.378906 143.714844 317.519531 142.734375 316.597656 141.8125 C 315.671875 140.890625 314.691406 140.03125 313.65625 139.238281 C 312.617188 138.445312 311.535156 137.722656 310.402344 137.070312 Z M 310.402344 137.070312 " fill-opacity="1" fill-rule="nonzero"/></g><path fill="#156cdd" d="M 272.335938 212.296875 L 310.402344 190.34375 C 311.589844 189.664062 312.722656 188.898438 313.792969 188.046875 L 272.335938 146.609375 Z M 272.335938 212.296875 " fill-opacity="1" fill-rule="nonzero"/><g clip-path="url(#25611f54e2)"><path fill="#156cdd" d="M 310.402344 185.285156 L 202.359375 247.410156 C 201.230469 248.0625 200.058594 248.640625 198.851562 249.140625 C 197.644531 249.644531 196.410156 250.0625 195.148438 250.402344 C 193.886719 250.738281 192.609375 250.996094 191.3125 251.164062 C 190.019531 251.335938 188.714844 251.421875 187.410156 251.421875 C 186.101562 251.421875 184.800781 251.335938 183.507812 251.164062 C 182.210938 250.996094 180.933594 250.738281 179.667969 250.402344 C 178.40625 250.0625 177.171875 249.644531 175.964844 249.140625 C 174.757812 248.640625 173.589844 248.0625 172.460938 247.410156 L 64.417969 185.285156 C 63.34375 184.675781 62.316406 184 61.328125 183.261719 C 60.339844 182.523438 59.398438 181.726562 58.507812 180.871094 C 57.621094 180.015625 56.785156 179.109375 56.011719 178.152344 C 55.234375 177.195312 54.519531 176.191406 53.867188 175.144531 C 53.214844 174.097656 52.628906 173.015625 52.109375 171.894531 C 51.59375 170.773438 51.144531 169.628906 50.769531 168.453125 C 50.394531 167.277344 50.09375 166.085938 49.863281 164.871094 C 49.636719 163.660156 49.484375 162.4375 49.410156 161.207031 L 49.410156 164.539062 C 49.410156 165.84375 49.496094 167.144531 49.667969 168.4375 C 49.839844 169.730469 50.09375 171.007812 50.433594 172.269531 C 50.769531 173.53125 51.191406 174.761719 51.691406 175.96875 C 52.191406 177.171875 52.765625 178.339844 53.421875 179.472656 C 54.074219 180.601562 54.796875 181.683594 55.59375 182.71875 C 56.386719 183.753906 57.246094 184.734375 58.171875 185.65625 C 59.09375 186.578125 60.074219 187.4375 61.109375 188.230469 C 62.144531 189.023438 63.230469 189.75 64.359375 190.402344 L 172.460938 252.695312 C 173.589844 253.351562 174.757812 253.929688 175.964844 254.429688 C 177.171875 254.929688 178.40625 255.351562 179.667969 255.6875 C 180.933594 256.027344 182.210938 256.28125 183.507812 256.453125 C 184.800781 256.625 186.101562 256.710938 187.410156 256.710938 C 188.714844 256.710938 190.015625 256.625 191.3125 256.453125 C 192.609375 256.28125 193.886719 256.027344 195.148438 255.6875 C 196.410156 255.351562 197.644531 254.929688 198.851562 254.429688 C 200.058594 253.929688 201.230469 253.351562 202.359375 252.695312 L 310.402344 190.34375 C 311.53125 189.691406 312.617188 188.96875 313.652344 188.171875 C 314.6875 187.378906 315.667969 186.519531 316.589844 185.597656 C 317.515625 184.675781 318.375 183.695312 319.167969 182.660156 C 319.964844 181.625 320.6875 180.542969 321.339844 179.414062 C 321.996094 178.285156 322.570312 177.117188 323.070312 175.910156 C 323.570312 174.707031 323.992188 173.472656 324.328125 172.210938 C 324.667969 170.953125 324.921875 169.675781 325.09375 168.382812 C 325.265625 167.085938 325.351562 165.789062 325.351562 164.484375 L 325.351562 162.929688 C 325.351562 162.300781 325.351562 161.78125 325.351562 161.148438 C 325.28125 162.382812 325.132812 163.605469 324.910156 164.820312 C 324.683594 166.03125 324.386719 167.226562 324.015625 168.40625 C 323.640625 169.582031 323.199219 170.730469 322.683594 171.851562 C 322.167969 172.976562 321.585938 174.058594 320.933594 175.109375 C 320.285156 176.160156 319.570312 177.164062 318.796875 178.125 C 318.023438 179.085938 317.191406 179.996094 316.304688 180.855469 C 315.414062 181.710938 314.476562 182.511719 313.488281 183.253906 C 312.503906 183.996094 311.472656 184.671875 310.402344 185.285156 Z M 310.402344 185.285156 " fill-opacity="1" fill-rule="nonzero"/></g><path fill="#ffffff" d="M 100.183594 210.976562 L 172.460938 252.695312 C 173.589844 253.351562 174.757812 253.929688 175.964844 254.429688 C 177.171875 254.929688 178.40625 255.351562 179.667969 255.6875 C 180.933594 256.027344 182.210938 256.28125 183.507812 256.453125 C 184.800781 256.625 186.101562 256.710938 187.410156 256.710938 C 188.714844 256.710938 190.019531 256.625 191.3125 256.453125 C 192.609375 256.28125 193.886719 256.027344 195.148438 255.6875 C 196.410156 255.351562 197.644531 254.929688 198.851562 254.429688 C 200.058594 253.929688 201.230469 253.351562 202.359375 252.695312 L 274.636719 210.976562 L 274.636719 152.300781 C 274.636719 151.753906 274.582031 151.210938 274.476562 150.675781 C 274.371094 150.136719 274.210938 149.617188 274.003906 149.109375 C 273.792969 148.605469 273.535156 148.125 273.230469 147.671875 C 272.929688 147.214844 272.582031 146.792969 272.195312 146.40625 C 271.808594 146.019531 271.386719 145.675781 270.933594 145.371094 C 270.476562 145.066406 269.996094 144.8125 269.492188 144.601562 C 268.984375 144.390625 268.464844 144.234375 267.925781 144.128906 C 267.390625 144.019531 266.847656 143.96875 266.300781 143.96875 L 108.519531 143.96875 C 107.972656 143.96875 107.429688 144.019531 106.894531 144.128906 C 106.355469 144.234375 105.835938 144.390625 105.328125 144.601562 C 104.824219 144.8125 104.34375 145.066406 103.886719 145.371094 C 103.433594 145.675781 103.011719 146.019531 102.625 146.40625 C 102.238281 146.792969 101.890625 147.214844 101.585938 147.671875 C 101.28125 148.125 101.027344 148.605469 100.816406 149.109375 C 100.605469 149.617188 100.449219 150.136719 100.34375 150.675781 C 100.234375 151.210938 100.183594 151.753906 100.183594 152.300781 Z M 100.183594 210.976562 " fill-opacity="1" fill-rule="nonzero"/><path fill="#dfe8f4" d="M 219.550781 182.585938 L 153.484375 182.585938 C 152.996094 182.585938 152.527344 182.492188 152.078125 182.304688 C 151.625 182.117188 151.226562 181.851562 150.882812 181.507812 C 150.539062 181.164062 150.273438 180.765625 150.085938 180.316406 C 149.898438 179.863281 149.804688 179.394531 149.804688 178.90625 C 149.804688 178.417969 149.898438 177.949219 150.085938 177.5 C 150.273438 177.050781 150.539062 176.652344 150.882812 176.308594 C 151.226562 175.960938 151.625 175.695312 152.078125 175.507812 C 152.527344 175.324219 152.996094 175.230469 153.484375 175.230469 L 219.550781 175.230469 C 220.039062 175.230469 220.507812 175.324219 220.960938 175.507812 C 221.410156 175.695312 221.808594 175.960938 222.15625 176.308594 C 222.5 176.652344 222.765625 177.050781 222.953125 177.5 C 223.140625 177.949219 223.230469 178.417969 223.230469 178.90625 C 223.230469 179.394531 223.140625 179.863281 222.953125 180.316406 C 222.765625 180.765625 222.5 181.164062 222.15625 181.507812 C 221.808594 181.851562 221.410156 182.117188 220.960938 182.304688 C 220.507812 182.492188 220.039062 182.585938 219.550781 182.585938 Z M 219.550781 182.585938 " fill-opacity="1" fill-rule="nonzero"/><path fill="#dfe8f4" d="M 219.550781 200.34375 L 153.484375 200.34375 C 152.996094 200.34375 152.527344 200.25 152.078125 200.0625 C 151.625 199.875 151.226562 199.609375 150.882812 199.265625 C 150.539062 198.921875 150.273438 198.523438 150.085938 198.074219 C 149.898438 197.621094 149.804688 197.152344 149.804688 196.664062 C 149.804688 196.175781 149.898438 195.707031 150.085938 195.257812 C 150.273438 194.808594 150.539062 194.410156 150.882812 194.066406 C 151.226562 193.71875 151.625 193.453125 152.078125 193.265625 C 152.527344 193.082031 152.996094 192.988281 153.484375 192.988281 L 219.550781 192.988281 C 220.039062 192.988281 220.507812 193.082031 220.960938 193.265625 C 221.410156 193.453125 221.808594 193.71875 222.15625 194.066406 C 222.5 194.410156 222.765625 194.808594 222.953125 195.257812 C 223.140625 195.707031 223.230469 196.175781 223.230469 196.664062 C 223.230469 197.152344 223.140625 197.621094 222.953125 198.074219 C 222.765625 198.523438 222.5 198.921875 222.15625 199.265625 C 221.808594 199.609375 221.410156 199.875 220.960938 200.0625 C 220.507812 200.25 220.039062 200.34375 219.550781 200.34375 Z M 219.550781 200.34375 " fill-opacity="1" fill-rule="nonzero"/><path fill="#dfe8f4" d="M 183.730469 218.160156 L 153.484375 218.160156 C 152.996094 218.160156 152.527344 218.066406 152.078125 217.878906 C 151.625 217.691406 151.226562 217.425781 150.882812 217.082031 C 150.539062 216.734375 150.273438 216.339844 150.085938 215.886719 C 149.898438 215.4375 149.804688 214.96875 149.804688 214.480469 C 149.804688 213.988281 149.898438 213.519531 150.082031 213.0625 C 150.269531 212.609375 150.535156 212.207031 150.878906 211.859375 C 151.222656 211.507812 151.621094 211.238281 152.070312 211.046875 C 152.523438 210.851562 152.992188 210.753906 153.484375 210.746094 L 183.730469 210.746094 C 184.21875 210.753906 184.691406 210.851562 185.140625 211.046875 C 185.59375 211.238281 185.992188 211.507812 186.335938 211.859375 C 186.679688 212.207031 186.945312 212.609375 187.128906 213.0625 C 187.316406 213.519531 187.410156 213.988281 187.410156 214.480469 C 187.410156 214.96875 187.316406 215.4375 187.128906 215.886719 C 186.941406 216.339844 186.675781 216.734375 186.332031 217.082031 C 185.988281 217.425781 185.589844 217.691406 185.136719 217.878906 C 184.6875 218.066406 184.21875 218.160156 183.730469 218.160156 Z M 183.730469 218.160156 " fill-opacity="1" fill-rule="nonzero"/></svg>